<svg width="96" height="96" viewBox="0 0 96 96" fill="none" xmlns="http://www.w3.org/2000/svg">
<circle cx="48" cy="48.0002" r="48" fill="#000E89"/>
<mask id="mask0" mask-type="alpha" maskUnits="userSpaceOnUse" x="3" y="3" width="90" height="90">
<circle cx="48.0009" cy="48.0007" r="44.7458" fill="#000E89"/>
</mask>
<g mask="url(#mask0)">
<path fill-rule="evenodd" clip-rule="evenodd" d="M-46.6384 158.471C-22.6962 150.542 -14.3471 146.635 -9.59075 139.415C-1.24795 126.75 -11.3177 112.661 -20.5161 111.724C-29.8068 110.775 -39.1973 112.188 -35.9845 103.077C-32.884 94.2848 -28.1307 103.468 -24.975 104.111C-21.8199 104.754 -13.613 106.64 -13.8877 90.2938C-14.1629 73.9474 -19.4262 62.0287 -35.1174 61.9674C-50.8085 61.9045 -69.3478 77.4326 -64.3084 57.7813C-57.1622 29.9158 -34.2476 33.95 -25.7479 42.0621C-18.9058 48.592 -18.3607 65.274 -13.3099 64.4773C-8.2589 63.6799 -0.776881 51.4052 -6.64721 34.4295C-12.5167 17.4542 -10.7098 2.81823 0.0883494 0.045656C10.8866 -2.72591 7.97006 19.9436 5.33537 26.4408C2.7005 32.9386 5.17262 43.8683 9.46762 42.778C13.7626 41.6877 11.9406 26.9927 15.0596 19.1392C18.1769 11.2837 29.9909 13.9255 30.9153 19.1392C31.8397 24.3529 22.9783 28.0472 18.5455 33.6752C14.1133 39.3033 13.8306 56.1354 15.4577 61.8303C17.0848 67.5253 20.339 82.9829 35.7341 80.5422C47.7044 69.9502 34.1062 75.7338 35.7341 68.771C37.3626 61.8082 46.606 60.7879 47.6767 67.5253C48.7461 74.2625 46.6074 79.8601 47.6767 87.0818C48.7465 94.3053 59.808 86.9669 64.9872 82.2209C93.281 56.2939 115.423 86.3261 88.7544 104.929L68.4067 183.215C35.6372 185.447 2.53728 189.131 -28.2048 201.9C-36.2295 193.943 -43.632 178.952 -46.6704 168.857C-46.3407 165.354 -46.3126 161.903 -46.6384 158.471Z" fill="#FBF0ED"/>
<path d="M81.2464 31.2042C82.9084 28.7837 81.9131 25.2023 79.0234 23.2049C76.1337 21.2075 71.8966 22.3473 70.2346 24.7677C69.0509 26.4915 67.9526 29.4216 68.4623 31.6869C68.854 33.4275 70.9606 33.6345 72.7376 33.5576C76.285 33.4041 78.9648 34.5269 81.2464 31.2042Z" fill="#FBF0ED"/>
<path d="M67.1367 20.868C67.1455 19.2471 65.6063 17.9253 63.699 17.9157C61.7916 17.906 60.2353 19.7458 60.2265 21.3667C60.2223 22.1426 60.4016 23.1549 60.7989 24.0005C61.5636 25.628 63.5915 24.8266 65.1105 23.8633C66.225 23.1565 67.1275 22.5658 67.1367 20.868Z" fill="#FBF0ED"/>
<path d="M75.153 60.3246C75.153 60.3246 70.8082 45.3836 70.1153 43.0014L71.2619 38.7226C71.432 38.0876 71.055 37.4347 70.42 37.2645L42.3976 29.7559C41.7626 29.5858 41.1097 29.9628 40.9395 30.5978L39.793 34.8765C38.0012 36.5939 26.7596 47.3688 26.7596 47.3688C26.611 47.5133 26.4974 47.6975 26.4398 47.9123L16.5795 84.7115C16.4093 85.3465 16.7863 85.9995 17.4213 86.1696L63.8433 98.6084C64.4783 98.7785 65.1313 98.4015 65.3014 97.7665L75.1617 60.9673C75.2204 60.7482 75.2127 60.5274 75.153 60.3246ZM68.2848 45.2331L72.2782 58.9621L57.9618 55.126L68.2848 45.2331ZM55.2726 54.4055L29.9396 47.6175L41.1966 36.8294L66.5297 43.6173L59.293 50.5526L57.2829 52.479L55.2726 54.4055ZM56.454 57.1871L63.3538 59.0359L55.2246 89.3746L47.4004 90.9757L56.454 57.1871ZM50.9313 92.6835L55.8397 91.6791L59.5883 95.0032L50.9313 92.6835Z" fill="#FBF0ED"/>
<path d="M49.8669 63.2131C49.8668 62.5556 49.3337 62.0224 48.6764 62.0225L45.377 62.0226L45.377 58.7233C45.3769 58.0658 44.844 57.5325 44.1865 57.5328C43.5289 57.5328 42.9959 58.0658 42.996 58.7233L42.9962 61.4613L42.2223 60.6874C41.7571 60.2225 41.0034 60.2226 40.5387 60.6874C40.0736 61.1524 40.0737 61.9062 40.5386 62.3711L45.0285 66.8608C45.1816 67.0139 45.3659 67.1166 45.561 67.1689C45.9584 67.2754 46.4003 67.1727 46.7121 66.8608C47.1771 66.3959 47.1771 65.6421 46.7121 65.1772L45.9383 64.4035L48.6764 64.4036C49.334 64.4035 49.867 63.8705 49.8669 63.2131Z" fill="#000E89"/>
<path d="M37.6764 74.1007L33.1865 69.6109C32.7215 69.1459 31.9677 69.1461 31.5029 69.6109C31.0379 70.0758 31.0379 70.8296 31.5028 71.2946L35.9927 75.7843C36.1458 75.9374 36.3301 76.0401 36.5252 76.0924C36.9226 76.1989 37.3645 76.0962 37.6763 75.7843C38.1413 75.3194 38.1413 74.5657 37.6764 74.1007Z" fill="#000E89"/>
<path d="M34.3092 77.4681L29.8095 72.9692C29.5949 72.7592 29.3016 72.6295 28.9777 72.6296C28.3202 72.6297 27.7871 73.1626 27.7872 73.8201L27.7873 77.1199C26.4627 77.1203 24.5051 77.1209 24.4944 77.1209C24.1875 77.119 23.8802 77.234 23.646 77.4682C23.181 77.9331 23.181 78.687 23.646 79.1518L28.1358 83.6416C28.2889 83.7946 28.4733 83.8974 28.6683 83.9497C29.0658 84.0562 29.5077 83.9535 29.8195 83.6416C30.2845 83.1767 30.2845 82.4229 29.8195 81.958L27.362 79.5006L28.9776 79.5006C29.6352 79.5006 30.1682 78.9676 30.1681 78.3101L30.1681 76.6945L32.6255 79.152C32.7786 79.305 32.963 79.4078 33.158 79.4601C33.5554 79.5666 33.9972 79.4638 34.3092 79.152C34.7742 78.6868 34.7742 77.9331 34.3092 77.4681Z" fill="#000E89"/>
<path d="M43.3448 68.5446C42.8797 68.0797 42.1259 68.0796 41.6611 68.5446L40.2581 69.9477L36.6101 66.2997C36.1449 65.8346 35.3914 65.8348 34.9265 66.2997C34.4614 66.7646 34.4615 67.5183 34.9264 67.9833L39.4162 72.4732C39.5693 72.6262 39.7537 72.729 39.9487 72.7812C40.3462 72.8877 40.7881 72.785 41.0999 72.4732L43.3448 70.2283C43.8098 69.7632 43.8097 69.0095 43.3448 68.5446Z" fill="#000E89"/>
</g>
</svg>
