<svg width="96" height="96" viewBox="0 0 96 96" fill="none" xmlns="http://www.w3.org/2000/svg">
<path d="M48.0031 96C21.5319 96 0 74.4681 0 48C0 21.5319 21.5319 0 48.0031 0C74.4681 0 96 21.5319 96 48C96 74.4681 74.4681 96 48.0031 96Z" fill="#000E89"/>
<mask id="mask0" mask-type="alpha" maskUnits="userSpaceOnUse" x="3" y="3" width="90" height="90">
<path d="M48.0028 92.9032C23.2394 92.9032 3.09668 72.7605 3.09668 48C3.09668 23.2395 23.2394 3.09677 48.0028 3.09677C72.7604 3.09677 92.9031 23.2395 92.9031 48C92.9031 72.7605 72.7604 92.9032 48.0028 92.9032Z" fill="#000E89"/>
</mask>
<g mask="url(#mask0)">
<path d="M47.9999 92.9032C72.7993 92.9032 92.9031 72.7994 92.9031 48C92.9031 23.2006 72.7993 3.09677 47.9999 3.09677C23.2005 3.09677 3.09668 23.2006 3.09668 48C3.09668 72.7994 23.2005 92.9032 47.9999 92.9032Z" fill="#000E89"/>
<path d="M81.7454 71.2026C79.9833 72.4273 78.0401 73.4586 75.9606 74.2606C80.3534 72.5698 76.2114 74.1584 75.1585 74.8289C73.8904 76.0413 72.6579 77.2877 71.447 78.5636C66.1903 84.1006 57.9079 89.8978 49.7294 88.9796C37.7247 87.631 29.1915 82.3262 23.9766 73.7775C20.6212 69.5706 19.319 63.8942 18.4783 60.9523C16.9299 55.5329 17.1993 39.5133 21.4155 34.1574C25.6349 28.8015 34.0674 25.2867 33.1879 20.3241C32.3084 15.3646 21.0656 12.8516 18.1004 20.3241C15.1306 27.7982 16.8648 41.7832 12.7771 42.8191C8.68935 43.855 4.92677 29.2769 10.3152 21.8245C15.4465 14.7236 12.006 0.0588349 3.85219 2.15225C-6.42445 4.79225 -8.14471 18.7184 -2.55968 34.8743C3.0269 51.0271 -4.09258 62.7097 -8.89878 63.4684C-13.705 64.224 -14.2237 48.3499 -20.7362 42.1363C-28.825 34.4191 -50.6309 30.5775 -57.4314 57.0968C-62.2268 75.7951 -44.5845 61.0188 -29.6518 61.0792C-14.7207 61.1365 -9.71323 72.48 -9.45 88.0335C-9.18987 103.59 -16.9984 101.797 -20.0007 101.182C-23.003 100.571 -27.5259 91.8317 -30.4771 100.199C-33.5352 108.87 -24.5979 107.523 -15.7581 108.427C-7.0051 109.319 2.57787 122.725 -5.36071 134.778C-9.8882 141.65 -17.833 145.366 -40.6159 152.914C-40.3063 156.176 -40.3326 159.462 -40.6485 162.797C-37.7576 172.402 -30.7109 186.667 -23.0743 194.24C6.17942 182.089 37.6783 178.585 68.8612 176.462L88.2254 101.964C108.155 88.0614 99.4403 67.4694 81.7454 71.2026Z" fill="#FBF0ED"/>
<path d="M114.096 75.0302C113.68 63.3182 104.275 62.9605 100.213 65.4611C96.9461 67.4787 95.2893 74.0764 93.3631 73.3239C91.4354 72.5744 89.5371 67.042 93.3275 60.785C97.1118 54.528 97.663 48.5435 93.6325 46.5135C90.4382 44.9017 87.679 50.7298 89.1655 54.1641C90.7262 57.7688 87.8385 63.5303 86.239 62.7282C84.6349 61.9262 86.6245 56.2297 86.0687 52.8325C85.5175 49.44 80.6199 49.4756 79.8023 51.4746C78.9894 53.4704 82.1698 55.7017 83.4364 58.3246C84.6999 60.943 83.359 67.6722 82.224 69.8013C81.8803 70.4454 80.544 72.3019 75.6403 74.4309C73.8767 75.1959 69.9624 80.3009 78.7773 74.6756C77.9149 75.5861 76.9502 76.3355 75.9035 76.9533C78.384 81.5473 77.76 86.6183 74.8738 90.5435C80.4991 86.8753 86.1089 83.1344 92.3102 80.4944C94.0614 75.8493 97.0731 73.1009 102.2 74.1925C108.404 75.5148 114.389 83.2893 114.096 75.0302Z" fill="#FBF0ED"/>
<path d="M42.8919 13.8875C43.3874 12.7138 42.6705 11.2893 41.2893 10.7024C39.9035 10.1218 38.2204 10.9874 37.7234 12.1595C37.6754 12.2741 37.629 12.401 37.5871 12.5311C36.8191 14.9264 37.2372 17.0152 39.2517 15.5102C39.5412 15.2903 42.6891 14.3659 42.8919 13.8875Z" fill="#FBF0ED"/>
<path d="M34.3337 13.0885C34.4962 12.5017 34.4297 12.2539 33.9884 11.969C33.5502 11.6841 33.0082 12.1239 32.8441 12.7123C32.8271 12.7695 32.8116 12.833 32.7992 12.8965C32.68 15.7874 33.671 14.3241 33.962 13.9819C34.0534 13.8751 34.2655 13.3285 34.3337 13.0885Z" fill="#FBF0ED"/>
<path d="M20.5377 55.1226C14.3488 62.1445 28.2657 81.8942 27.8275 81.2563C24.6455 76.6297 17.6701 65.2459 17.3619 60.5141C17.1901 57.8988 17.8017 54.847 18.2585 53.7012C18.6533 52.7055 19.7681 52.3386 20.4401 52.7241C21.1121 53.1128 21.2422 54.3205 20.5377 55.1226Z" fill="#FBF0ED"/>
<path d="M54.3341 90.9616C54.2706 89.8436 56.5251 86.0485 56.7852 84.7463C56.8239 84.5497 59.1713 79.1768 59.2363 79.0034C58.6402 78.5621 53.1651 81.0318 52.281 80.8274C51.5919 80.9512 50.875 80.9899 50.1504 80.9419C51.6833 81.0426 50.2402 80.9466 49.8345 81.0008C49.2926 81.1866 48.7568 81.3863 48.2211 81.6C45.8985 82.5182 42.6407 83.0973 40.3429 81.7022C36.9736 79.6599 35.1744 76.9208 34.8028 73.6723C34.3863 71.9659 34.778 70.1079 34.9344 69.1216C35.2177 67.3084 37.4908 62.5998 39.4743 61.5948C41.4577 60.5869 44.4368 60.6968 44.8564 59.1112C45.2761 57.5195 42.2923 55.2341 40.3894 57.0441C38.4864 58.8496 37.082 63.2222 35.7318 62.9714C34.3785 62.7174 35.2626 57.8865 37.8794 56.4201C40.3708 55.0219 41.3617 50.2049 38.6629 49.711C35.258 49.0823 32.8379 52.9688 32.2789 58.5182C31.7199 64.0661 28.0115 66.5512 26.4817 66.1161C26.3734 66.0836 26.2866 66.0263 26.2123 65.9551C26.073 67.3022 26.1875 68.6152 26.1272 70.0599C25.9646 73.9324 23.7163 77.4534 24.3248 81.3445C24.7398 83.9659 22.1741 85.1319 20.2185 84.4831C19.9522 85.4168 19.4505 86.3148 18.619 87.0596C18.5571 88.2612 18.5044 89.4658 18.4673 90.6767C20.889 91.5143 29.9192 99.5365 32.3285 99.6155C40.2144 99.871 44.3455 99.6217 47.1945 96.3143L49.9894 90.8238C50.1457 90.7959 50.2805 90.751 50.4306 90.72C50.5777 90.353 50.875 90.9136 51.0453 90.5714C51.77 89.1112 53.3741 92.2359 54.3341 90.9616Z" fill="#FBF0ED"/>
<path d="M81.163 115.172C81.1708 113.72 72.3202 112.961 60.2258 107.693C72.9039 112.967 80.9834 111.955 80.9292 112.226C81.163 111.874 73.2601 112.805 60.6578 107.67C73.4397 112.591 81.2606 111.324 81.081 111.521C81.1692 111.095 73.2508 112.134 60.6686 107.173C73.4459 111.213 81.129 108.914 81.4201 108.735C81.8722 107.91 74.9354 109.203 62.2727 105.537C74.7713 107.858 80.6196 105.329 80.1535 105.348C79.7153 104.756 72.969 106.707 60.9597 103.796C63.2405 104.179 65.275 104.394 67.0898 104.504C64.6665 104.157 60.89 103.567 55.9863 102.703C71.1992 106.136 70.2485 106.746 54.5989 102.765C64.7641 107.884 56.6056 108.67 46.6898 100.814C39.5331 99.4111 34.473 92.7732 39.7267 93.9856C32.155 85.0932 33.4541 83.2986 39.3566 91.505C37.2972 86.928 36.9039 83.8885 37.3716 82.6266C36.4874 78.8098 37.2601 76.6421 37.593 76.1156C38.2727 75.6047 38.4245 77.0617 39.6554 81.3197C39.5765 81.7595 39.5192 82.2828 39.4805 82.865C39.8737 83.3187 40.2903 83.9489 40.7161 84.768C40.857 85.2062 41.0087 85.6614 41.1698 86.1383C41.1976 86.0516 41.2286 85.968 41.258 85.8859C41.6947 86.8816 42.1282 88.0723 42.5385 89.4705C45.5718 79.6428 47.3803 87.6217 46.5519 90.113C50.3687 78.6101 48.0817 74.8103 43.0263 87.487C42.8296 85.601 40.9607 85.3285 40.281 80.1863C39.5548 71.2243 43.257 69.0612 41.6575 68.801C40.795 69.0287 35.2131 71.9505 37.0572 84.5048C31.1656 72.2307 24.4797 67.2852 32.4059 85.0947C29.6962 80.9543 28.1385 77.5169 27.2049 74.8738C27.2018 74.8785 27.2017 74.8816 27.2017 74.8877C28.1168 77.4674 29.6281 80.8119 32.2092 84.8315C29.7086 81.329 28.0503 78.3608 26.923 76.0305C26.7713 76.5786 26.5901 77.1252 26.3857 77.6578C27.5176 80.239 29.2735 83.4039 32.0203 87.0302C29.0768 84.7154 26.7047 82.4764 24.8265 80.6183C23.9285 81.648 22.408 82.3618 21.1445 81.7471C22.9158 84.5528 25.9274 88.2163 30.8141 92.3892C28.3181 91.5685 26.0776 90.5853 24.1019 89.5788C13.4552 83.1794 8.80072 76.639 8.38111 76.9517C8.14885 76.56 12.938 84.336 25.8005 91.6877C12.0802 84.9739 5.98266 77.2908 5.77672 78.2292C5.7473 78.3329 11.6079 87.0627 25.929 93.8725C14.841 89.7321 14.344 97.2774 20.9494 103.654C26.9974 110.097 40.1463 115.37 43.5016 108.184C54.8869 120.591 68.827 123.231 72.4503 122.942C76.8198 122.289 70.8694 118.702 59.7411 110.223C73.082 117.547 81.5532 116.014 81.163 115.172Z" fill="#FBF0ED"/>
<path d="M37.7231 80.1987C38.1071 81.8632 38.8055 83.8374 39.9946 86.1321C39.7546 83.8343 39.7283 81.9283 39.832 80.4372C38.8612 79.3161 38.0638 79.2743 37.7231 80.1987Z" fill="#FBF0ED"/>
<path d="M58.5983 75.7781C56.7557 78.6039 54.461 79.0483 54.012 78.4831C53.4484 77.7739 55.5697 75.5814 56.0342 73.9092C56.5033 72.2338 54.2489 71.2119 53.4499 71.9566C52.6509 72.6968 53.6373 74.3969 53.662 75.8694C53.6884 77.3373 51.6414 80.1414 50.669 80.8723C50.5436 80.9698 50.2711 81.1262 49.8019 81.2733C49.0447 81.8292 48.2195 82.2178 47.3322 82.464C47.5583 82.4392 47.7906 82.4129 48.0507 82.3788C47.4577 82.6111 46.8569 82.7489 46.2422 82.8093C46.4048 85.44 45.0391 87.6372 42.876 88.8248C46.1988 88.3417 49.5294 87.8292 52.8894 87.9174C52.9204 86.6152 53.0272 85.2619 53.3152 83.8219C53.6977 81.9252 54.893 80.7825 56.316 80.2684C56.6969 79.8596 59.6527 80.8057 58.8166 79.4323C58.8584 79.3425 70.733 57.1463 58.5983 75.7781Z" fill="#FBF0ED"/>
<path d="M49.6472 37.9432C49.9568 37.6661 49.9383 37.1458 49.6131 36.7804C49.2802 36.4227 48.6624 36.4444 48.3543 36.7278C48.3233 36.7525 48.2908 36.7866 48.2614 36.8191C47.6977 37.4214 47.5305 38.0981 48.3465 37.9278C48.4627 37.8999 49.5233 38.0594 49.6472 37.9432Z" fill="#FBF0ED"/>
<path d="M47.2037 36.5373C47.3354 36.3871 47.3509 36.3035 47.2579 36.1579C47.1635 36.0124 46.9436 36.0681 46.8136 36.2199C46.7996 36.2369 46.7857 36.2524 46.7764 36.2679C46.3444 37.1086 46.8383 36.8098 46.9715 36.7494C47.0133 36.7308 47.1527 36.5977 47.2037 36.5373Z" fill="#FBF0ED"/>
<path d="M37.7726 54.6193C37.1718 55.3626 37.4676 55.8797 37.2384 55.776C37.0077 55.6676 36.7956 54.5481 36.9427 54.2338C37.0882 53.9179 37.3933 53.7476 37.6224 53.8529C37.85 53.9582 37.9925 54.3453 37.7726 54.6193Z" fill="#FBF0ED"/>
<path fill-rule="evenodd" clip-rule="evenodd" d="M73.6811 50.335L73.0075 50.1321C73.5494 44.7252 72.4284 39.3817 69.7683 34.8852C69.3765 34.2178 68.1208 32.5177 67.1004 31.5654L68.7154 28.08C69.104 27.2485 70.1414 26.784 71.0178 27.0472L71.2516 27.12C72.1311 27.3832 73.5386 27.8075 74.3747 28.0614C75.2155 28.3138 76.2328 28.6219 76.6462 28.7443C77.0535 28.8681 77.6047 28.2472 77.871 27.3693L78.5956 24.9646C78.8604 24.0852 78.8016 23.2815 78.4594 23.1794C78.1234 23.0787 77.1231 22.7768 76.2467 22.512L76.1384 22.481C75.2635 22.2132 73.8189 21.7796 72.9409 21.5179L67.3187 19.8255C66.4377 19.5577 65.4158 20.0284 65.0457 20.8692L62.2137 27.3073C60.8743 26.5997 59.0256 25.8937 57.7745 25.5174C47.7239 22.4919 36.7458 27.6604 31.4581 37.6165L30.8449 37.4276C29.343 36.977 27.7574 37.8286 27.3038 39.329L26.2215 42.9306C25.7678 44.4294 26.6209 46.0165 28.1229 46.4686L28.7887 46.6684L21.4385 92.0114L51.2821 100.998L70.2065 59.1437L70.959 59.3729C72.4578 59.8235 74.0449 58.9688 74.4986 57.4699L75.5825 53.8715C76.0362 52.3726 75.1814 50.7855 73.6811 50.335ZM66.0475 33.8354C66.7335 34.6049 67.486 35.6175 67.7569 36.0743C70.0826 40.0165 71.0968 44.688 70.7174 49.4431L60.2565 46.2921C60.2612 46.2766 60.2751 46.2658 60.2829 46.2503L66.0475 33.8354ZM49.9969 98.1693L24.0754 90.367L31.0462 47.3574L67.9474 58.4686L49.9969 98.1693ZM72.2581 56.7995C72.1791 57.0612 71.8927 57.2129 71.631 57.1339L28.798 44.2328C28.5363 44.1553 28.3845 43.8735 28.4635 43.6103L29.5458 40.0119C29.6248 39.7502 29.9112 39.5969 30.1714 39.6728L37.4504 41.8684L37.4689 41.8111C38.5962 41.8637 39.0777 40.2643 38.11 39.6867L38.127 39.6263L33.7466 38.3071C38.5946 29.6005 48.2658 25.1024 57.0994 27.7626C58.3304 28.1311 60.1249 28.8248 61.2723 29.4534L54.6282 44.544C54.6235 44.561 54.6282 44.5765 54.6189 44.592L49.7771 43.1319L49.7709 43.1566C48.4439 42.8779 47.8478 44.8506 49.1082 45.3507L49.1004 45.3755L70.4217 51.7966C70.4155 51.8183 70.4155 51.84 70.414 51.8632L70.9838 51.9685L73.0044 52.577C73.2661 52.6544 73.4178 52.9409 73.3404 53.1995L72.2581 56.7995Z" fill="#FBF0ED"/>
</g>
</svg>
